<svg xmlns="http://www.w3.org/2000/svg" viewBox="0 0 1253.87 466.29"><defs><style>.cls-1{fill:#fca83a;}.cls-2{fill:#9d4b17;}.cls-3{fill:#d6f9b4;}.cls-4{fill:#d4f2af;}.cls-5{fill:#d4ae96;}.cls-6{fill:#d6fab6;}.cls-7{fill:#d6fdb6;}.cls-8{fill:#f29d66;}.cls-9{fill:#ccb78d;}.cls-10{fill:#ec945b;}.cls-11{fill:#f19357;}</style></defs><g id="Layer_2" data-name="Layer 2"><g id="Layer_1-2" data-name="Layer 1"><path class="cls-1" d="M1072.44,233.22c-1.08.41-2.27,1.34-3.21,1.13-6.47-1.45-10.76,2.44-15.11,6-19.93,16.37-44.76,4.86-66.9,12.57-9.62,3.35-17.27,10.59-25.34,16.8-27,20.75-59.61,25.85-91,36.63-12.92,4.43-26.62,5.48-39.74,9.06-3.53,1-7.28,1.38-10.58,2.83-7.73,3.39-14.86,1.48-22.12-1.41a47.11,47.11,0,0,0-8.65-2.3C759.58,309,744.42,275,732.47,249.94l-47-98.52,29.71,103.92c6.94,24.29,14.07,50.76,6.57,75.8a23.93,23.93,0,0,1-4.1,8.55c-7.18,8.71-26.34,11.61-36.58,15.15-15,5.19-30.1,10.27-45.27,15.07-24.29,7.7-50.2,18.14-76.08,16.28-24-1.73-50.69-10.38-64-31.49-11.69-18.5-15-40.85-25.28-60.06-4-7.41-4-16.93-5.79-25.48-.88-4.08-.86-7.26-4.15-10-1.14,7.16-1.9,14.38-2.66,21.6,0,27.67-8.34,55.25-8.88,82.84-.25,12.74-4,24.59-7.93,36.57-4,12.21-14.25,20.25-26.76,22.61-10.95,2.06-22.2.33-33.27-.84-22.43-2.37-45-2.4-67.54-1.52-19.95.77-44.57,6.35-64.07,1-6.93-1.91-13.92-1.88-20.82-3-8.63-1.44-17.24-.52-25.84-1-1.33-.07-2.65-.17-4-.26-2.67-.29-3.35-2.42-4.07-4.45-3.18-9-8.32-16.89-13.73-24.65a9.46,9.46,0,0,0-8.4-4.29c-1.92,0-4.65,1.17-5.51-2.05,10,.82,17.38-5.17,24.76-10.23,17.76-12.17,40.87-19.49,62-22.86,35.2-5.59,73.91-11.09,109.54-7.38,1.59.17,1.95-.67,2.31-1.91a15.67,15.67,0,0,0,.86-6.89c-2.22-13,.54-27,2.8-39.88a247.65,247.65,0,0,0,3.39-36L375.48,170c.62-20,1.31-40.42,8.13-59.25,10.15-28,35.23-43.62,62.7-52.13,10.78-3.33,22-4.58,33.23-5.86,9.56-1.09,19.14-2.08,28.56-4.09,7.45-1.59,8.7,7,13.51,11,6.15,5.16,14.36,7.7,22.23,8.57C569.38,71,596,57.91,609.31,35.93c6.67-11,10.84-24.62,21.9-31.21,16.31-9.7,44.42-2,61.66,1.76C707,9.6,721,15.13,731.6,25.06c11.8,11.1,17.95,26.36,23.34,41.3,5.48,15.18,12,29.88,17.44,45,5.52,15.4,9.67,31.2,16.16,46.36,5.69,13.29,9.48,27.54,13,41.71,1.32,5.28,2.92,10.49,4.52,16.19,45-26,102.77-29.86,153.52-29.27,16.61.19,33.35,1,49.86-1.26,7.85-1.07,15.09-3.58,22.75-5.32,7.87-1.8,15.71-2.13,23-6.09,5-2.7,9.42-6,14.21-8.92,4.64,1.15,6.19,3.69,5.1,8.77a67.91,67.91,0,0,1-3.36,9.87c-3.62,9.44-3.24,18.81,0,28.21,1.52,4.39,3.45,8.63,4.72,13.1C1076.92,228.33,1076.89,231.74,1072.44,233.22Z"/><path class="cls-2" d="M167.08,381.64c1,1.27,2.51,1.12,3.68.87,6.57-1.4,10.13,2.21,13.18,7.27,4.6,7.63,9.94,14.84,12.38,23.62.37,1.35,1.62,2.46,2.47,3.68-7.73,4.71-16.78,6.2-24.89,10.07a68.35,68.35,0,0,0-10.07,6,29.41,29.41,0,0,1-15,5.42c-11.17,1-21.78,4.75-32.7,7-12.29,2.5-23.69,7.63-35.39,11.9-7.16,2.61-14.29,5.29-21.48,7.81a14.53,14.53,0,0,1-7.37.86c-2.66-.47-5.62-.69-6.11-4.06s-.62-7.16,3.2-9.18c6.18-3.27,10.27-9.48,17.08-12.08-6.52,1.17-12.85,2.73-19.29,3.66-6.72,1-13.32,2.86-20.14,3-2.71.07-6.5,1-7.69-1.83-1.33-3.18.57-6.46,3.33-8.78,1.78-1.5,3.61-2.93,5.42-4.4,2.85-2.49,6.82-2.24,10-4.05h0c1.86-1.33,3.73-2.65,6.06-2.82-7.06-.46-13.94,2.19-21,.92a35.53,35.53,0,0,1-20.46-6.79c-2.74-1.95-3-3.74-.56-6a20.39,20.39,0,0,1,10.94-5.45c9.19-1.3,18.27-3.42,27.61-3.48,1.6,0,1.94-.54,2.19-2.3,1.85-12.79,3.65-25.6,7.46-38,.74-2.62,1.34-4.78,5.23-3.86s6.45-1.72,7.29-6c.74-3.79-1.52-7.29-.67-11,3.18-.75,4.66.6,4.93,3.77.37,4.3,1.2,8.54.24,12.88-2,9-1,18.2-1.42,27.31-.16,3.88,2.27,4.73,5.4,4.91,10.78.62,20.56-3,30.33-6.9,4.39-1.77,6.51-3.57,3.51-8.45-1.31-2.13-1.66-5.1-1.68-7.7,0-3.47-1-4.39-4.63-4.13-9.83.71-18.71-1.92-25.55-9.51-2.52-2.8-4.7-5.81-1.05-9.39,2.6-1,2.27,1.1,2.3,2.42.08,3.83,2.68,5,5.75,5.62,3.87.82,7.88,1.89,11.23-1.2,1.78-1.63,1.53-3.85.54-5.95-.58-1.23-2-2.49,0-3.72,11.69-.64,23.19-.27,33.86,5.55a27,27,0,0,1,5.84,4.52c8.23,7.93,15.26,17.07,24.61,23.88C159.4,380,163.51,379.94,167.08,381.64Z"/><path class="cls-3" d="M91.66,343.58c0,.61-.3,1.57,0,1.77,2.78,2,2.93,4.8,1.78,7.55s-4,3.21-6.65,3.55A22.77,22.77,0,0,1,77,355.11c-2.77-.88-4.48-2.82-4.11-6,.14-1.16.53-2.31-1.07-2.73,3.29-3.67,8-1.9,11.88-2.52A49.27,49.27,0,0,1,91.66,343.58Z"/><path class="cls-4" d="M61.74,343.62a19.81,19.81,0,0,1,2,11.94c-.84,5.32-5.09,8.26-10,6.17-3.82-1.61-2,2.69-3.78,2.81C52.4,356.75,54.12,348.51,61.74,343.62Z"/><path class="cls-2" d="M1099.45,121.48l-2-.93a43.08,43.08,0,0,1,14.42-11.42c1.58-.8,3.31-1.65,4.77.31l-1.39,1.41c-4.77,2.87-9.87,5.28-13.21,10.07A1.86,1.86,0,0,1,1099.45,121.48Z"/><path class="cls-5" d="M22.71,426.54a233.45,233.45,0,0,0,24.53-2.28c-3.14,1.62-5.9,3.91-9.54,4.18-.21-3.51-2.82-1.56-4.09-1.48C29.94,427.2,26.29,428.52,22.71,426.54Z"/><path class="cls-2" d="M1130.43,105.5c3.27-2,6.83-.87,10.28-.91,2.33-.41,4.39-.1,5.66,2.21-.26.59-.53,1.17-.79,1.76C1140.5,107.66,1135.24,107.71,1130.43,105.5Z"/><path class="cls-5" d="M37.69,428.44c-2.78,2.65-6.69,2.56-9.95,4.05C30.25,429.15,34.09,429.08,37.69,428.44Z"/><path class="cls-2" d="M1247.27,129.9c-11.88.36-23.42,2.74-34.83,5.93-9.93,2.78-19.92,5.39-29.8,8.35-4.36,1.31-4.87-.31-3.86-3.91,1.25-4.49,2.31-9,3.75-13.46,1.11-3.42.2-5.27-3.26-6.3a151.9,151.9,0,0,1-22.7-9c-2.93-.78-5.46-2.43-8.16-3.71l-2-1c-1.53-.46-1.33.77-1.54,1.6a7.3,7.3,0,0,0,.21,1.39c.84,4-.64,5.9-4.89,5.56-3.09-.24-6.2.13-9.28-.73-3.33-.92-4.87-2.59-3.4-6.08,1-1.47,2.55-1.84,4.11-2.23,3-1,6.43.71,9.13-1.72a7.28,7.28,0,0,1-.37-.8c-5.73-2.64-11.3-1.7-16.8.79-3,.67-2.49,6.18-6.86,4.86-.89-.36-1.35.12-1.67.87-.28,1.16.11,2.3.09,3.45-.13,6.27-4.74,13.18-9.61,14.21-2.41.51-5.19,1.13-7-.93s1.22-3.43,1.32-5.33c0-.17,0-.33,0-.49-.52-1.14-1.28-1.4-2.34-.67-3.94,2.37-6.27,6.68-10.81,8.46-7.5,2.93-10.83,9.42-12.49,16.71-1.46,6.39-.4,13.39-4.78,19.06,5,2.58,4.69,6.52,3,11-2.93,8-6.31,15.86-5.19,24.88,1,7.69,3.7,14.67,6.49,21.72,1.53,3.85,2.51,7.63-1.31,10.83,9.29,2.66,18.89,3.35,28.43,4.28,4.74.47,9.58.92,14.38-.51,9.58-2.85,18.78-6.69,28.06-10.37a103.42,103.42,0,0,1,33.86-7.33c6.11-.27,12.55.28,18.21-2.13,8.12-3.44,16.34-6.48,24.74-9.1a6.66,6.66,0,0,0,4.51-4.29c1.7-4.59-.23-8.4-6.18-9.92-6.55-1.67-13.21-2.85-20.2-1.79-4.88.75-10,.15-16.28.15a18.88,18.88,0,0,1,9.15-3c5.62-.63,11.27-1.1,16.88-1.79,9.74-1.22,19.49-2.38,28.82-5.73a9.14,9.14,0,0,0,6.27-7.71c.58-3.73-2.45-5-5-6.62-8.55-5.35-17.93-3.94-27.21-3.52-8.36.38-16.58,2.54-25.06,2.11a105.55,105.55,0,0,1,14.16-5.84c7.17-2.15,14.48-3.83,21.75-5.62,6.29-1.56,12.64-2.82,18.9-4.6,6.64-1.89,9.84-6.36,12.21-12.06S1253.57,129.71,1247.27,129.9Zm-106.21,14.44c-9,7.53-19.58,11.63-30.76,14.53-1.61.41-3,.23-3.91-1.3a5.45,5.45,0,0,1-.3-5.68,30.32,30.32,0,0,1,8.86-10c5.54-4.17,9.54-9.23,10.33-16.33.24-2.14,1.14-2.54,2.94-1.57q7.46,4,14.93,8c1.9,1,1.82,3,2.36,4.63A11.57,11.57,0,0,1,1141.06,144.34Z"/><path class="cls-6" d="M1099.45,121.48c2.19-.74,3.09-2.77,4.46-4.36a17.47,17.47,0,0,1,11.38-6.27c1.91,4.22.08,11.63-4.19,15.71a11.26,11.26,0,0,1-12.53,2.35C1092.18,126.15,1098.37,123.91,1099.45,121.48Z"/><path class="cls-7" d="M1130.43,105.5c5.24.07,10.56-.27,15.15,3.06h0c1,7.15.72,7.52-6.1,7.51a30.61,30.61,0,0,1-7.85-.69c-5.47-1.42-6-2-5.12-7.81C1127.34,106,1128.79,105.57,1130.43,105.5Z"/><path class="cls-8" d="M1075.41,201.8c2.54-6.75,16.17-13,28.39-14.35,15.1-1.61,29.54-1.25,42.35,8C1121.48,184.25,1098.1,186.21,1075.41,201.8Z"/><path class="cls-9" d="M1126.51,107.57c-.54,4.61,1.1,7.17,6.14,7.38,1.9.08,3.85.67,5.84.69,7,0,7,.06,7.09-7.08,2.39,6.48,1.25,8.25-5.34,8.22a37.09,37.09,0,0,1-10.39-1C1125.43,114.42,1124.5,112.16,1126.51,107.57Z"/><path class="cls-10" d="M1113.39,173.83c-1.5,5.61-4.64,10-10,12.49C1106.55,182,1110,178,1113.39,173.83Z"/><path class="cls-11" d="M141,401.27c-1.4-1.18-3.26-.38-3.85-3.45,11.76,3.86,23.73,4.79,34.44,10.53-19.62-7-39-6.28-58.72,1.21C115.41,405.31,125.85,402.38,141,401.27Z"/></g></g></svg>