<?xml version="1.0" encoding="utf-8"?>
<!-- Generator: Adobe Illustrator 21.1.0, SVG Export Plug-In . SVG Version: 6.00 Build 0)  -->
<svg version="1.1" id="Layer_1" xmlns="http://www.w3.org/2000/svg" xmlns:xlink="http://www.w3.org/1999/xlink" x="0px" y="0px"
	 viewBox="0 0 1920 1080" style="enable-background:new 0 0 1920 1080;" xml:space="preserve">
<style type="text/css">
	.st0{fill:none;stroke:#000000;stroke-miterlimit:10;}
	.st1{fill:none;stroke:#000000;stroke-miterlimit:10;stroke-dasharray:11.9938,11.9938;}
</style>
<g>
	<path d="M154.1,816.3c-27.6-21.7-54.9-43.1-82.3-64.6c-1.8,5.8-5.1,10.1-10.4,12.6c-9.4,4.5-20.7,0.6-25.4-8.8
		c-4.7-9.4-1-20.8,8.4-25.6c9.3-4.8,20.8-1.2,25.6,8c2.6,4.9,6.3,8.7,11.4,11.1c4.2,1.9,8.6,2,12.9,0.2c1-0.4,1.6-0.3,2.4,0.4
		c17.4,15.4,34.9,30.8,52.3,46.3c1.5,1.4,2.7,3.3,3.5,5.2C154.4,805.7,154.6,810.8,154.1,816.3z M42,752.4c3,6.1,10.5,8.6,16.6,5.5
		c6.1-3,8.5-10.4,5.5-16.5c-3-6.2-10.4-8.7-16.6-5.6C41.5,738.8,39,746.3,42,752.4z M99.5,761c-1.8,0.9-2.6,3.2-1.6,5
		c1,1.9,3.3,2.7,5.3,1.6c1.6-0.8,2.3-3.4,1.4-5.1C103.6,760.8,101.3,760.1,99.5,761z"/>
	<path d="M108.8,733.2c0.1,7.3,0.3,14.3,0.4,21.9c-3.9-3.3-7.6-6.4-11.2-9.5c4.7-7.5,4.1-15,0.6-22.6c-4.1-9-0.3-19.7,8.6-24.5
		c8.7-4.7,19.9-1.8,25.2,6.5c5.4,8.5,3.4,19.8-4.6,25.7C122.4,734.8,116.8,735.5,108.8,733.2z M105.2,720.8c3,6.2,10.4,8.7,16.5,5.6
		c6.1-3,8.6-10.3,5.6-16.4c-3-6.2-10.3-8.7-16.5-5.8C104.7,707.2,102.2,714.7,105.2,720.8z"/>
	<path d="M110.9,837.8c-5-3-9.3-6.2-11.8-11.2c-0.8-1.5-1.3-3.2-1.4-4.9c-1.2-14.1-2.3-28.1-3.4-42.2c-0.1-1.7-0.2-3.4-0.4-5.4
		c3.5,2.7,6.7,5.2,9.9,7.7c2,1.6,4.7,2.9,5.8,5c1,2,0.4,4.9,0.4,7.5c0.3,13.7,0.6,27.3,0.8,41C110.9,835.9,110.9,836.7,110.9,837.8z
		"/>
</g>
<g>
	<g>
		<path class="st0" d="M99.1,759.2c0,0,0.4,2.1,1.4,5.8"/>
		<path class="st1" d="M104.1,776.4c16.1,45,78.2,155.6,280.1,55c248.6-123.8-89.6-178.7-44.1-445.5
			c32.4-189.8,421.6-228.4,580.6-31c192.8,239.5-383.2,576.4-52.5,588.1c436.8,15.5,227.9-626.6,588.1-482.1
			c356.9,143.1-11.8,417,401.9,335.4"/>
		<path class="st0" d="M1864.1,795.1c1.9-0.4,3.9-0.8,5.9-1.2"/>
	</g>
</g>
</svg>
