<svg xmlns="http://www.w3.org/2000/svg" viewBox="0 0 1280.46 155.59"><defs><style>.cls-1{fill:none;stroke:#fff;stroke-miterlimit:10;}</style></defs><g id="Layer_2" data-name="Layer 2"><g id="Layer_1-2" data-name="Layer 1"><line class="cls-1" x1="0.23" y1="44.38" x2="107.44" y2="0.46"/><line class="cls-1" x1="0.23" y1="118.08" x2="226.97" y2="0.46"/><line class="cls-1" x1="129.23" y1="155.19" x2="346.49" y2="0.46"/><line class="cls-1" x1="337.06" y1="155.19" x2="466.02" y2="0.46"/><line class="cls-1" x1="541.83" y1="155.19" x2="585.54" y2="0.46"/><line class="cls-1" x1="1280.23" y1="41.12" x2="1180.97" y2="0.46"/><line class="cls-1" x1="1280.23" y1="113.96" x2="1061.44" y2="0.46"/><line class="cls-1" x1="1159.18" y1="155.19" x2="941.92" y2="0.46"/><line class="cls-1" x1="951.35" y1="155.19" x2="822.4" y2="0.46"/><line class="cls-1" x1="746.59" y1="155.19" x2="702.87" y2="0.46"/><line class="cls-1" x1="0.23" y1="4.24" x2="396.23" y2="4.24"/><line class="cls-1" x1="0.23" y1="24.24" x2="396.23" y2="24.24"/><line class="cls-1" x1="0.23" y1="44.24" x2="396.23" y2="44.24"/><line class="cls-1" x1="0.23" y1="72.92" x2="396.23" y2="72.92"/><line class="cls-1" x1="0.23" y1="105.09" x2="396.23" y2="105.09"/><line class="cls-1" x1="0.23" y1="146.45" x2="396.23" y2="146.45"/></g></g></svg>